<svg width="27" height="16" viewBox="0 0 27 16" fill="none" xmlns="http://www.w3.org/2000/svg">
<path d="M13.3334 3.625C12.4681 3.625 11.6222 3.88159 10.9028 4.36232C10.1833 4.84305 9.62253 5.52633 9.2914 6.32576C8.96027 7.12519 8.87363 8.00485 9.04244 8.85352C9.21125 9.70219 9.62793 10.4817 10.2398 11.0936C10.8516 11.7054 11.6312 12.1221 12.4799 12.2909C13.3285 12.4597 14.2082 12.3731 15.0076 12.042C15.807 11.7108 16.4903 11.1501 16.9711 10.4306C17.4518 9.71115 17.7084 8.86529 17.7084 8C17.7084 6.83968 17.2474 5.72688 16.427 4.90641C15.6065 4.08594 14.4937 3.625 13.3334 3.625ZM13.3334 10.625C12.8142 10.625 12.3067 10.471 11.875 10.1826C11.4433 9.89417 11.1069 9.4842 10.9082 9.00454C10.7095 8.52489 10.6575 7.99709 10.7588 7.48789C10.8601 6.97869 11.1101 6.51096 11.4772 6.14384C11.8443 5.77673 12.3121 5.52672 12.8213 5.42544C13.3305 5.32415 13.8583 5.37614 14.3379 5.57482C14.8176 5.7735 15.2275 6.10995 15.516 6.54163C15.8044 6.97331 15.9584 7.48082 15.9584 8C15.9584 8.69619 15.6818 9.36387 15.1895 9.85616C14.6972 10.3484 14.0296 10.625 13.3334 10.625ZM25.5834 0.125H1.08337C0.85131 0.125 0.62875 0.217187 0.464656 0.381282C0.300561 0.545376 0.208374 0.767936 0.208374 1V15C0.208374 15.2321 0.300561 15.4546 0.464656 15.6187C0.62875 15.7828 0.85131 15.875 1.08337 15.875H25.5834C25.8154 15.875 26.038 15.7828 26.2021 15.6187C26.3662 15.4546 26.4584 15.2321 26.4584 15V1C26.4584 0.767936 26.3662 0.545376 26.2021 0.381282C26.038 0.217187 25.8154 0.125 25.5834 0.125ZM20.5138 14.125H6.1529C5.85913 13.1314 5.32144 12.2272 4.58882 11.4945C3.8562 10.7619 2.95193 10.2242 1.95837 9.93047V6.06953C2.95193 5.77576 3.8562 5.23807 4.58882 4.50545C5.32144 3.77283 5.85913 2.86856 6.1529 1.875H20.5138C20.8076 2.86856 21.3453 3.77283 22.0779 4.50545C22.8105 5.23807 23.7148 5.77576 24.7084 6.06953V9.93047C23.7148 10.2242 22.8105 10.7619 22.0779 11.4945C21.3453 12.2272 20.8076 13.1314 20.5138 14.125ZM24.7084 4.21234C23.6589 3.76105 22.8223 2.92452 22.371 1.875H24.7084V4.21234ZM4.29572 1.875C3.84443 2.92452 3.0079 3.76105 1.95837 4.21234V1.875H4.29572ZM1.95837 11.7877C3.0079 12.2389 3.84443 13.0755 4.29572 14.125H1.95837V11.7877ZM22.371 14.125C22.8223 13.0755 23.6589 12.2389 24.7084 11.7877V14.125H22.371Z" fill="white"/>
</svg>
