<svg width="20" height="24" viewBox="0 0 20 24" fill="none" xmlns="http://www.w3.org/2000/svg">
<path d="M3.00002 23.6666C2.35836 23.6666 1.80886 23.438 1.35152 22.9806C0.894189 22.5233 0.665911 21.9742 0.666689 21.3333V7.33331C0.666689 6.69165 0.895355 6.14215 1.35269 5.68481C1.81002 5.22748 2.35913 4.9992 3.00002 4.99998H5.33336C5.33336 3.71665 5.7903 2.61804 6.70419 1.70415C7.61808 0.790257 8.71669 0.333313 10 0.333313C11.2834 0.333313 12.382 0.790257 13.2959 1.70415C14.2097 2.61804 14.6667 3.71665 14.6667 4.99998H17C17.6417 4.99998 18.1912 5.22865 18.6485 5.68598C19.1059 6.14331 19.3341 6.69242 19.3334 7.33331V21.3333C19.3334 21.975 19.1047 22.5245 18.6474 22.9818C18.19 23.4391 17.6409 23.6674 17 23.6666H3.00002ZM3.00002 21.3333H17V7.33331H14.6667V9.66665C14.6667 9.9972 14.5547 10.2745 14.3307 10.4985C14.1067 10.7225 13.8298 10.8341 13.5 10.8333C13.1695 10.8333 12.8922 10.7213 12.6682 10.4973C12.4442 10.2733 12.3326 9.99642 12.3334 9.66665V7.33331H7.66669V9.66665C7.66669 9.9972 7.55469 10.2745 7.33069 10.4985C7.10669 10.7225 6.8298 10.8341 6.50002 10.8333C6.16947 10.8333 5.89219 10.7213 5.66819 10.4973C5.44419 10.2733 5.33258 9.99642 5.33336 9.66665V7.33331H3.00002V21.3333ZM7.66669 4.99998H12.3334C12.3334 4.35831 12.1047 3.80881 11.6474 3.35148C11.19 2.89415 10.6409 2.66587 10 2.66665C9.35836 2.66665 8.80886 2.89531 8.35152 3.35265C7.89419 3.80998 7.66591 4.35909 7.66669 4.99998Z" fill="white"/>
</svg>
